<?xml version="1.0" standalone="no"?>
<!DOCTYPE svg PUBLIC "-//W3C//DTD SVG 1.1//EN" "http://www.w3.org/Graphics/SVG/1.1/DTD/svg11.dtd" >
<svg xmlns="http://www.w3.org/2000/svg">
<metadata></metadata>
<defs>
<font id="StereoHifi" horiz-adv-x="800" >
<font-face units-per-em="2048" ascent="1638" descent="-410" />
<missing-glyph horiz-adv-x="636" />
<glyph horiz-adv-x="0" />
<glyph horiz-adv-x="2048" />
<glyph unicode=" "  horiz-adv-x="636" />
<glyph unicode="&#x09;" horiz-adv-x="636" />
<glyph unicode="&#xa0;" horiz-adv-x="636" />
<glyph unicode="!" horiz-adv-x="647" d="M190 158l48 -80l57 -105q174 80 237 121q8 6 9 21q0 39 -42 99t-77 60q-104 0 -232 -116zM338 772q0 -272 49 -266q82 12 133 41q41 23 105 319q8 35 8 97q0 129 -29 269t-59 144q-43 4 -113 -142.5t-86 -287.5q-8 -82 -8 -174z" />
<glyph unicode="&#x22;" horiz-adv-x="829" d="M176 682q0 104 33 201q37 106 88 116q16 2 29 2q94 0 94 -112q0 -68 -31 -121q-23 -66 -43 -133q-29 -80 -84 -80q-25 0 -55.5 18.5t-30.5 108.5zM483 764q0 102 27 186q29 94 76 103q12 2 24 2q109 0 109 -152q0 -70 -27 -117q-2 -2 -39 -120q-23 -72 -71 -72 q-25 0 -62 16q-37 27 -37 154z" />
<glyph unicode="#" horiz-adv-x="2648" />
<glyph unicode="'" horiz-adv-x="380" d="M111 741q0 104 32 201q37 106 88 117q16 2 31 2q94 0 94 -113q1 -68 -30 -121q-23 -66 -45 -133q-29 -80 -82 -80q-27 0 -57.5 18.5t-30.5 108.5z" />
<glyph unicode="*" horiz-adv-x="854" d="M35 834q0 23 10 43q35 27 72 26q45 0 110 -47q55 -41 109 -82q2 23 2 78q0 84 10 121q16 61 68 78q68 -10 88 -62q10 -25 14 -108q4 -74 27 -107l162 172q72 -41 92 -172q-6 -68 -60 -137q-51 -59 -102 -119q53 -70 108 -139q68 -88 68 -152q0 -55 -49 -102l-23 -25 q-72 20 -186 162q-20 -27 -29 -149q-8 -96 -75 -117q-4 4 -54 20q-33 10 -39 39q0 10 2 58q2 35 0 55q-2 29 -14 49q-57 -74 -172 -92q-88 57 -88 131q0 33 18 66q8 25 99 112q78 78 78 125q0 57 -97 98q0 2 -92 82q-57 49 -57 95z" />
<glyph unicode="," horiz-adv-x="555" d="M285 -84q0 102 32 199q37 109 89 116q16 4 30 5q94 0 94 -115q1 -68 -30 -121q-23 -66 -45 -131q-29 -82 -82 -82q-27 0 -57.5 18.5t-30.5 110.5z" />
<glyph unicode="-" horiz-adv-x="870" d="M109 436q0 37 39.5 74t97.5 47q51 8 135 8q139 0 252 -20q129 -25 129 -64q0 -57 -199 -94q-148 -27 -246 -27q-123 0 -184 29q-25 18 -24 47z" />
<glyph unicode="." horiz-adv-x="585" d="M225 152l47 -80l58 -105q174 80 237 121q8 4 8 21q0 39 -41.5 99t-76.5 60q-104 0 -232 -116z" />
<glyph unicode=":" horiz-adv-x="583" d="M223 172l47 -80l58 -104q174 80 237 121q8 4 8 20q0 39 -41.5 99.5t-76.5 60.5q-104 0 -232 -117zM229 602l45 -80l111 -98q59 27 115 65q37 25 71 50q4 4 4 12q0 37 -65 111.5t-102 74.5t-84.5 -44t-94.5 -91z" />
<glyph unicode=";" horiz-adv-x="657" d="M303 602l45 -80l111 -98q59 27 114 65q37 25 72 50q4 4 4 12q0 37 -65.5 111.5t-102.5 74.5t-84 -44t-94 -91zM352 -76q0 104 33 201q37 106 88 117q16 2 29 2q94 0 94 -113q0 -68 -31 -121q-23 -66 -43 -133q-29 -80 -84 -80q-25 0 -55.5 18.5t-30.5 108.5z" />
<glyph unicode="=" horiz-adv-x="854" d="M201 528q0 51 39 102.5t94 61.5q27 4 67 4q135 0 291 -41q164 -45 164 -94q0 -57 -199 -94q-147 -27 -245 -27q-123 0 -185 29q-27 18 -26 59zM211 182q0 49 70.5 113.5t136.5 77.5q23 4 51 4q117 0 253 -53.5t136 -104.5q0 -55 -176 -86q-119 -18 -219 -18 q-160 0 -236 35q-16 12 -16 32z" />
<glyph unicode="?" horiz-adv-x="792" d="M86 1112q8 -72 49 -72q29 0 105.5 51.5t111.5 55.5q59 6 106.5 -32t57.5 -85q12 -68 -61 -131q-72 -49 -142 -100q-80 -59 -80 -121q0 -76 105 -176q45 -33 90 -33q80 0 80 82q0 35 -21 78q-10 31 58.5 83t138.5 103q84 72 98 146q14 188 -231 337q-23 8 -59 9 q-119 0 -261 -62q-153 -65 -145 -133zM180 178l47 -82l58 -102q174 80 237 121q8 4 8 20q0 39 -42 99.5t-76 60.5q-105 0 -232 -117z" />
<glyph unicode="A" horiz-adv-x="989" d="M2 291q0 -78 18 -152q16 -49 89 -92q82 -49 178 -49q174 0 313 160q92 -117 223 -117q66 0 125 29q68 29 135 59q90 45 91 90q-1 13 -7 25q-16 29 -51 28q-43 0 -143.5 -58t-124.5 -58q-10 0 -17 6q-47 45 -47 188q0 162 45 328q-18 -2 -36 -2q-72 0 -181 53 q-166 55 -252 55q-111 0 -180 -65q-178 -164 -178 -428zM215 264q0 88 58.5 199.5t136.5 179.5q16 16 45 16t53 -15t29 -34q-8 -139 -101 -297q-89 -156 -168 -156q-5 0 -10 1q-43 33 -43 106z" />
<glyph unicode="B" horiz-adv-x="819" d="M6 219q0 -219 381 -219h21q289 0 354 174q18 70 37 139q20 84 20 145q0 106 -67 181q-127 94 -289 94q-25 0 -49.5 -3t-51.5 -13q-59 -25 -104 -82l53 524q2 27 2 51q0 98 -37.5 152.5t-97.5 54.5q-59 0 -125 -51q31 -20 45 -113q2 -15 2 -45q0 -104 -26 -387 q-33 -350 -66 -555q-2 -25 -2 -47zM233 248q10 111 74 211q70 109 170 149q100 0 105 -57q1 -22 1 -43q0 -109 -26 -195q-37 -114 -113 -147q-39 -12 -77 -12q-113 0 -134 94z" />
<glyph unicode="C" d="M-2 367q0 207 137 368q72 86 180 86q45 0 86 -16q96 -37 195 -74q139 -61 139 -131q0 -20 -12 -39.5t-37 -19.5q-37 0 -130 70.5t-130 70.5q-18 0 -31 -12q-162 -143 -180 -365v-13q0 -58 31 -106q39 -59 102 -59q76 0 254 76q236 102 275 114q30 2 30 -42q0 -30 -18 -52 q-242 -209 -494 -209q-100 0 -190 37q-145 55 -176 139t-31 177z" />
<glyph unicode="D" horiz-adv-x="1013" d="M6 217q0 -102 62 -192q123 -135 268 -136q170 0 326 207q20 -78 126 -96q10 -2 23 -2q62 0 194 48q152 55 152 91q0 88 -61 88q-29 0 -98.5 -44t-102.5 -44q-31 0 -51.5 26.5t-20.5 280.5q0 262 29 465q33 250 96 275q-4 37 -40 63.5t-81 26.5q-92 0 -131 -82 q-45 -96 -71 -483q-33 -20 -76 -21q-35 0 -111 18.5t-112 18.5q-88 0 -142 -74q-92 -156 -116 -205q-61 -127 -62 -229zM268 160q0 133 113 352q25 47 86 47q51 1 91 -29q33 -25 33 -53q0 -6 -1 -12q-31 -141 -96 -262q-80 -147 -158 -148q-12 0 -25 4q-43 27 -43 101z" />
<glyph unicode="E" horiz-adv-x="817" d="M12 338q0 -90 32 -172t175 -139q90 -37 193 -37q246 0 491 198q18 20 19 56q0 50 -24 50q-3 0 -7 -1q-27 -8 -236 -115q-152 -78 -266 -78q-39 0 -78 9q-57 16 -57 92q0 20 10 35q45 43 113.5 61t134.5 33q82 20 147 61q96 63 97 146q0 16 -4 34q-45 96 -148 146 q-94 31 -188 63q-45 10 -86 11q-117 0 -180 -80q-137 -170 -138 -373zM311 432q1 93 105 197q10 8 28 8q59 0 86 -53q0 -76 -110 -148q-59 -39 -74 -39q-23 0 -35 35z" />
<glyph unicode="F" d="M-23 594q35 58 149 58q24 0 52 -3q23 150 45 299q35 184 92 285q76 133 207 162q31 6 58 6q96 0 188 -72q56 -44 150 -155q16 -20 16 -39q0 -43 -64 -66q-12 -2 -24 -2q-51 0 -107.5 84t-103.5 84q-16 0 -39 -8q-74 -29 -125 -174q-49 -137 -49 -287q0 -63 10 -115 q195 0 242 -57q4 -16 4 -29q0 -45 -46 -58t-118 -13q-45 0 -94 6l-35 -533q-4 -47 -94 -47q-49 0 -94 15.5t-45 31.5v522q-96 4 -115 11q-61 18 -61 82q0 6 1 12z" />
<glyph unicode="G" horiz-adv-x="866" d="M41 -330q0 -68 180 -108q106 -23 199 -23q213 0 293 125q31 47 71 404q53 479 66 553q-14 -6 -35 -7q-45 0 -202.5 67t-250.5 67q-147 -1 -239 -146q-72 -111 -72 -278q0 -98 25 -209q76 -121 215 -121q31 0 63 6q33 0 88.5 39t81.5 39q27 0 49 -21q-6 -35 -24 -188 q-12 -111 -33 -170q-41 -68 -106 -68q-53 0 -159 56.5t-142 56.5q-37 0 -56 -35q-12 -20 -12 -39zM252 250q0 102 29 182q25 63 75 121q61 70 117 70q49 0 86 -62q10 -14 10 -39q0 -96 -109 -250q-99 -142 -157 -142q-5 0 -10 1q-41 12 -41 119z" />
<glyph unicode="H" horiz-adv-x="915" d="M0 4q100 565 100 893v8q0 294 -73 340q78 88 145 88q55 0 88 -59.5t33 -157.5q0 -27 -2 -57l-47 -463q16 -20 39 -21q20 0 59 26t53 30q49 10 97 10q231 0 309 -184v-224q2 -156 69 -159h3q29 0 91 32q66 34 87 33q25 0 28 -30q1 -4 1 -7q0 -48 -103 -73q-31 -6 -189 -25 q-193 0 -208 139q0 29 13 118t13 134q0 127 -84 131h-5q-74 0 -146 -125q-47 -80 -115 -256q-61 -162 -78.5 -183t-42.5 -21q-47 0 -135 63z" />
<glyph unicode="I" horiz-adv-x="458" d="M0 858q20 4 41 4q117 0 219 -168q0 102 39 154q29 39 135 108q-18 -1 -34 -1q-101 0 -142 32q-25 20 -84 133q0 -106 -47 -168q-37 -45 -127 -94zM18 412q0 158 52 221q32 39 81 39t115 -39q-61 -70 -61 -299q0 -207 74 -246q41 -16 75 -16q45 0 104.5 36.5t98.5 36.5 q14 -16 14 -34q0 -53 -188 -117h-57q-39 -2 -58 -2q-135 0 -198 71q-51 158 -52 349z" />
<glyph unicode="J" horiz-adv-x="626" d="M-258 -233q-1 -6 -1 -12q0 -21 17 -35q21 -17 43 -33q188 -94 398 -95q188 0 223 103q20 57 29 262q8 258 20 358q27 201 96 287q-29 74 -98 74q-31 0 -80 -19t-72 -82q-14 -57 -27 -111q-9 -36 -9 -136q0 -52 2 -121q4 -98 4 -171q0 -91 -6 -142q-14 -154 -76 -166 q-18 -4 -41 -4q-53 0 -164 33.5t-162 33.5q-53 0 -96 -24zM315 946q90 -14 127 -69q21 -27 60 -144q41 100 90 133q10 6 137 58q-100 25 -137 86q-27 39 -41 141q-41 -102 -88 -143t-148 -62z" />
<glyph unicode="K" horiz-adv-x="833" d="M23 1262q68 61 133 61q74 0 120 -77q41 -69 41 -166v-21q-2 -72 -26 -279q-23 -190 -23 -278q80 10 215 141q129 125 185 125q37 0 67 -33q1 -8 1 -16q0 -63 -44 -121q-29 -37 -110.5 -107.5t-112.5 -113.5q109 -98 217 -195q132 -108 246 -108h2q68 0 137 35l12 -11 q-37 -68 -127 -88q-82 -8 -163 -16q-98 12 -265 133q-149 111 -195 111h-3q-66 -14 -105 -95v-71q0 -41 -35 -56q-27 -8 -51 -8q-59 0 -89 45q-23 35 -23 84q0 15 2 31q49 451 49 731q0 316 -55 363z" />
<glyph unicode="L" horiz-adv-x="475" d="M-23 375q0 61 23 278q8 78 63 293q51 195 52 277q0 88 -43 127q58 67 150 67h3q136 0 150 -139q-63 -225 -127 -451q-72 -256 -72 -452q0 -92 14 -185q4 -28 51 -28h3q41 0 168 30.5t172 30.5q47 0 55 -26q1 -5 1 -10q0 -71 -241 -160q-55 -16 -108 -17q-139 0 -234 96 q-80 96 -80 269z" />
<glyph unicode="M" horiz-adv-x="1308" d="M20 141q0 86 23 246t23 225q0 92 -29 156q43 45 104 45q49 0 86 -29.5t39 -78.5q0 -55 10 -125q76 100 183 100q47 0 102 -21q27 -8 47 -49q16 -33 33 -65q29 20 96 123q57 86 121 106q25 4 49 4q80 0 158 -39t113 -102q16 -49 16 -109q0 -49 -16.5 -140t-16.5 -136 q0 -51 17 -94q6 -14 22 -15q18 0 93 45t108 45q39 0 51 -53q1 -5 1 -9q1 -50 -101 -94q-110 -48 -224 -48q-55 0 -88 14q-116 51 -116 188q0 41 12 124t12 122q0 61 -20 103q-102 -57 -158 -205l-82 -262q-20 -55 -76 -56q-25 0 -51 11q-102 39 -102 180q0 25 3 75t3 74 q0 63 -16 103q-90 -76 -164 -232q-61 -129 -123 -258l-135 33q-6 47 -7 98z" />
<glyph unicode="N" horiz-adv-x="950" d="M0 8q2 25 35 240q22 150 22 234v7q0 133 -51 173q29 59 98 59q80 0 117 -41q20 -35 27 -105q4 -61 8 -120q39 102 74 142q33 38 83 38h5q168 -12 227 -31q121 -37 166 -143q4 -25 4 -55q0 -35 -7 -105t-7 -98q0 -90 51 -107q4 -1 9 -1q31 1 95 23q74 26 97 25 q37 0 37 -35q0 -47 -109 -73q-45 -10 -193 -27q-74 0 -131 31q-70 37 -77 108q0 29 10 107t10 117q0 117 -80 129q-6 1 -12 1q-86 0 -174 -188l-148 -352q-18 -2 -36 -2q-84 0 -150 49z" />
<glyph unicode="O" horiz-adv-x="948" d="M16 344q0 -184 115 -270q156 -70 295 -70q59 0 116.5 10.5t108.5 56.5t72 105q27 78 143 133q96 37 192 76q87 35 88 79q0 5 -1 9q-10 57 -43 57q-23 0 -101.5 -54t-128.5 -54q-37 0 -69 29q-37 137 -168 223q-123 84 -268 84q-139 0 -226 -62q-98 -68 -112 -200 q-12 -98 -13 -152zM227 311q0 72 74 244q37 84 119 84q72 0 127 -90q51 -80 51 -156q0 -53 -23 -100q-35 -53 -69 -105q-43 -53 -103 -67q-55 0 -100 26q-51 29 -59 76q-16 41 -17 88z" />
<glyph unicode="P" horiz-adv-x="1046" d="M6 -567l35 -33q41 -10 80 -10q70 0 102 32l68 662q190 -94 284 -94q47 0 93 14q66 14 106 74q33 57 66 117q104 16 243 94q147 84 148 143q0 9 -4 17q-12 18 -33 18q-23 1 -122 -65q-86 -57 -147 -57q-9 0 -18 1q-51 18 -61 88q-12 86 -29 107q-147 172 -328 172 q-49 0 -137 -14.5t-127 -14.5q-53 0 -94 18q8 -23 8 -86q0 -256 -133 -1183zM338 354q-2 14 -2 27q0 127 139 201q23 12 41 12q37 0 57 -96q20 -109 60 -133q8 -43 8 -78q0 -107 -76 -162q-14 -4 -28 -4q-63 0 -125 80q-57 74 -74 153z" />
<glyph unicode="Q" horiz-adv-x="899" d="M16 297q0 -123 78 -207q111 -84 266 -84q31 0 64 4q51 18 149 58q-36 -154 -36 -300v-8q0 -170 47 -299q31 -82 198 -82q63 0 121 15q51 20 103 41q65 33 65 72q0 17 -9.5 33t-27.5 16q-20 0 -90 -30t-110 -30q-39 0 -68 23q-18 25 -18 106q0 72 29.5 342.5t29.5 419.5 q0 125 -19 215q-20 -2 -40 -2q-76 0 -210 56q-122 50 -200 50q-8 0 -16 -1q-12 1 -24 1q-62 0 -118 -35q-65 -42 -98 -114q-66 -150 -66 -260zM244 293q0 147 78 258q43 27 98 27q115 0 164 -97q-41 -236 -217 -342q-10 -10 -29 -12q-7 -1 -15.5 -1t-19.5 1q-27 2 -29 2 q-30 74 -30 159v5z" />
<glyph unicode="R" horiz-adv-x="671" d="M27 299q0 31 2 91.5t4 88.5q0 92 26 164q35 100 103 100q31 0 67 -20q2 -8 2 -21q0 -10 -4 -41.5t-4 -48.5q0 -33 15 -43q51 63 102 125q66 74 137 82q23 2 43 2q139 0 139 -94q6 -12 7 -25q0 -29 -52 -55q-7 -1 -14 -1q-26 1 -58 11q-42 14 -57 13q-25 0 -43 -23 q-76 -92 -127 -209q-55 -125 -55 -227q0 -68 25 -117q-45 -33 -123 -33q-72 0 -96 39q-39 102 -39 242z" />
<glyph unicode="S" horiz-adv-x="833" d="M29 133q0 18 18 35q18 6 41 6q49 0 153.5 -29.5t145.5 -29.5q70 0 94 53q1 3 1 7q0 28 -76 58q-158 61 -175 72q-100 53 -114 125q-1 10 -1 20q0 174 228 312q20 8 57 8q117 0 256 -59q144 -62 144 -126v-5q-8 -72 -49 -72q-27 0 -104 50t-109 56q-8 1 -16 1 q-49 -1 -89 -33q-48 -38 -55 -82q-2 -9 -2 -17q0 -62 90 -110q98 -45 197 -88q108 -54 108 -118q0 -62 -86 -147q-48 -36 -185 -36h-7q-131 0 -269.5 28.5t-177.5 65.5q-18 53 -18 55z" />
<glyph unicode="T" d="M-10 674q27 61 145 61q45 0 98 -10q4 33 5 61q0 135 -74 172q31 76 141 76q66 0 119 -31.5t57 -82.5q0 -23 -4 -191q66 14 117 14q111 0 125 -57q-4 -27 -31 -47q-63 -49 -225 -61l4 -390q0 -49 55 -49q31 0 107 19.5t106 19.5q55 0 56 -49q0 -10 -5 -25 q-12 -43 -124.5 -88t-217.5 -45q-106 0 -143 56q-77 161 -77 472q0 36 1 74q-236 11 -236 90q0 5 1 11z" />
<glyph unicode="U" horiz-adv-x="948" d="M-2 340q0 182 86 375l160 -10q-59 -209 -60 -398q0 -190 82 -207h7q58 0 122 95q31 43 121 217q74 145 125 200q31 47 88 47q78 0 121 -55q-45 -31 -73.5 -129t-28.5 -199q0 -158 65 -165q6 -1 12 -1q49 0 133 43q94 48 117 48q39 0 39 -41q0 -53 -121 -101 q-113 -45 -219 -45q-76 0 -98 29l-88 133q-33 -88 -131 -137q-88 -43 -193 -43q-94 0 -147 35q-119 104 -119 309z" />
<glyph unicode="V" horiz-adv-x="817" d="M-8 668q45 20 88 43q51 22 87 22h3q43 0 78 -31q110 -350 178 -446q70 57 129 203q66 168 111 221q7 2 15 2q22 0 46 -18q27 -20 53 -41q-35 -240 -278 -615q-88 -20 -123 -20q-117 0 -201 147q-156 274 -186 533z" />
<glyph unicode="W" horiz-adv-x="1247" d="M-29 705q71 81 173 81h3q88 0 119 -53l82 -510q45 41 90 160q53 143 76 180q55 86 141 86q43 0 99 -20q-6 -20 -6 -45q0 -94 145 -361q70 76 135 223q100 225 109 240q8 2 16 2q55 0 76 -59q-92 -291 -135 -393q-98 -229 -189 -234h-6q-64 0 -113 41q-39 39 -75 78 q-23 29 -109 217q-100 -295 -209 -336q-125 0 -162 10q-88 18 -104 94q-20 70 -35 224q-16 162 -33 223q-29 111 -88 152z" />
<glyph unicode="X" horiz-adv-x="911" d="M25 78l254 256q-14 39 -119 141q-92 88 -92 148q0 35 26 69q55 72 139 72q16 0 35 -2q-1 -5 -1 -11q0 -44 69 -108q66 -59 131 -121q37 20 141 146q87 108 143 108h1q45 0 86 -61q2 -8 2 -25q0 -121 -228 -321l283 -256q-57 -72 -186 -95q-72 8 -160 76q-57 49 -115 101 q-20 -10 -131 -113q-82 -74 -149 -74q-29 0 -60 10q-6 6 -43 25q-27 14 -26 35z" />
<glyph unicode="Y" horiz-adv-x="817" d="M10 -250q8 33 49 33q35 0 159 -47q119 -45 178 -45h5q90 4 117 159q12 76 12 271q-74 -27 -147 -55q-96 -33 -164 -33q-86 0 -140 53t-54 162q0 55 18 163.5t18 151.5q0 90 -51 119q37 45 109 45q86 0 123 -61q20 -35 20 -93q0 -51 -21.5 -158.5t-21.5 -146.5 q0 -86 70 -90h8q95 0 166 139q49 92 96 281q41 162 53 172q51 -2 104.5 -3t82.5 -44l-92 -1042q-8 -94 -228 -95q-154 0 -295 35q-176 44 -176 114q0 7 2 15z" />
<glyph unicode="Z" horiz-adv-x="892" d="M14 573q-1 12 -1 24q0 203 235 204q49 0 150.5 -9.5t146.5 -9.5q39 0 67 4q23 6 43 7q63 0 107 -56q31 -41 37 -90v-117q-6 -37 -174 -151q-201 -135 -254 -195l524 17q6 -10 6 -29q0 -63 -55 -117q-63 -57 -494 -57q-229 0 -250 22q-23 39 -45 76q-26 47 -26 85 q0 34 14 61q57 63 196.5 185t198.5 185q-86 16 -176 17q-166 0 -250 -56z" />
<glyph unicode="a" horiz-adv-x="989" d="M2 291q0 -78 18 -152q16 -49 89 -92q82 -49 178 -49q174 0 313 160q92 -117 223 -117q66 0 125 29q68 29 135 59q90 45 91 90q-1 13 -7 25q-16 29 -51 28q-43 0 -143.5 -58t-124.5 -58q-10 0 -17 6q-47 45 -47 188q0 162 45 328q-18 -2 -36 -2q-72 0 -181 53 q-166 55 -252 55q-111 0 -180 -65q-178 -164 -178 -428zM215 264q0 88 58.5 199.5t136.5 179.5q16 16 45 16t53 -15t29 -34q-8 -139 -101 -297q-89 -156 -168 -156q-5 0 -10 1q-43 33 -43 106z" />
<glyph unicode="b" horiz-adv-x="819" d="M6 219q0 -219 381 -219h21q289 0 354 174q18 70 37 139q20 84 20 145q0 106 -67 181q-127 94 -289 94q-25 0 -49.5 -3t-51.5 -13q-59 -25 -104 -82l53 524q2 27 2 51q0 98 -37.5 152.5t-97.5 54.5q-59 0 -125 -51q31 -20 45 -113q2 -15 2 -45q0 -104 -26 -387 q-33 -350 -66 -555q-2 -25 -2 -47zM233 248q10 111 74 211q70 109 170 149q100 0 105 -57q1 -22 1 -43q0 -109 -26 -195q-37 -114 -113 -147q-39 -12 -77 -12q-113 0 -134 94z" />
<glyph unicode="c" d="M-2 367q0 207 137 368q72 86 180 86q45 0 86 -16q96 -37 195 -74q139 -61 139 -131q0 -20 -12 -39.5t-37 -19.5q-37 0 -130 70.5t-130 70.5q-18 0 -31 -12q-162 -143 -180 -365v-13q0 -58 31 -106q39 -59 102 -59q76 0 254 76q236 102 275 114q30 2 30 -42q0 -30 -18 -52 q-242 -209 -494 -209q-100 0 -190 37q-145 55 -176 139t-31 177z" />
<glyph unicode="d" horiz-adv-x="1013" d="M6 217q0 -102 62 -192q123 -135 268 -136q170 0 326 207q20 -78 126 -96q10 -2 23 -2q62 0 194 48q152 55 152 91q0 88 -61 88q-29 0 -98.5 -44t-102.5 -44q-31 0 -51.5 26.5t-20.5 280.5q0 262 29 465q33 250 96 275q-4 37 -40 63.5t-81 26.5q-92 0 -131 -80 q-45 -96 -71 -485q-33 -20 -76 -21q-35 0 -111 18.5t-112 18.5q-88 0 -142 -74q-92 -156 -116 -205q-61 -127 -62 -229zM268 160q0 133 113 352q25 47 86 47q51 1 91 -29q33 -25 33 -53q0 -6 -1 -12q-31 -141 -96 -262q-80 -147 -158 -148q-12 0 -25 4q-43 27 -43 101z" />
<glyph unicode="e" horiz-adv-x="817" d="M12 338q0 -90 32 -172t175 -139q90 -37 193 -37q246 0 491 198q18 20 19 56q0 50 -24 50q-3 0 -7 -1q-27 -8 -236 -115q-152 -78 -266 -78q-39 0 -78 9q-57 16 -57 92q0 20 10 35q45 43 113.5 61t134.5 33q82 20 147 61q96 63 97 146q0 16 -4 34q-45 96 -148 146 q-94 31 -188 63q-45 10 -86 11q-117 0 -180 -80q-137 -170 -138 -373zM311 432q1 93 105 197q10 8 28 8q59 0 86 -53q0 -76 -110 -148q-59 -39 -74 -39q-23 0 -35 35z" />
<glyph unicode="f" d="M-23 594q35 58 149 58q24 0 52 -3q23 150 45 299q35 184 92 285q76 133 207 162q31 6 58 6q96 0 186 -72q58 -44 152 -155q16 -20 16 -39q0 -43 -64 -66q-12 -2 -24 -2q-51 0 -107.5 84t-103.5 84q-16 0 -39 -8q-74 -29 -125 -174q-49 -137 -49 -287q0 -63 10 -115 q195 0 242 -57q4 -16 4 -29q0 -45 -46 -58t-118 -13q-45 0 -94 6l-35 -533q-4 -47 -94 -47q-49 0 -94 15.5t-45 31.5v522q-96 4 -115 11q-61 18 -61 82q0 6 1 12z" />
<glyph unicode="g" horiz-adv-x="866" d="M41 -330q0 -68 180 -108q106 -23 199 -23q213 0 293 125q31 47 71 404q53 479 66 553q-14 -6 -35 -7q-45 0 -202.5 67t-250.5 67q-147 -1 -239 -146q-72 -111 -72 -278q0 -98 25 -209q76 -121 215 -121q31 0 63 6q33 0 88.5 39t81.5 39q27 0 49 -21q-6 -35 -24 -188 q-12 -111 -33 -170q-41 -68 -106 -68q-53 0 -159 56.5t-142 56.5q-37 0 -56 -35q-12 -20 -12 -39zM252 250q0 102 29 182q25 63 75 121q61 70 117 70q49 0 86 -62q10 -14 10 -39q0 -96 -109 -250q-99 -142 -157 -142q-5 0 -10 1q-41 12 -41 119z" />
<glyph unicode="h" horiz-adv-x="915" d="M0 4q100 565 100 893v8q0 294 -73 340q78 88 145 88q55 0 88 -59.5t33 -157.5q0 -27 -2 -57l-47 -463q16 -20 39 -21q20 0 59 26t53 30q49 10 97 10q231 0 309 -184v-224q2 -156 69 -159h3q29 0 91 32q66 34 87 33q25 0 28 -30q1 -4 1 -7q0 -48 -103 -73q-31 -6 -189 -25 q-193 0 -208 139q0 29 13 118t13 134q0 127 -84 131h-5q-74 0 -146 -125q-47 -80 -115 -256q-61 -162 -78.5 -183t-42.5 -21q-47 0 -135 63z" />
<glyph unicode="i" horiz-adv-x="458" d="M18 412q0 158 52 221q32 39 81 39t115 -39q-61 -70 -61 -299q0 -207 74 -246q41 -16 75 -16q45 0 104.5 36.5t98.5 36.5q14 -16 14 -34q0 -53 -188 -117h-57q-39 -2 -58 -2q-135 0 -198 71q-51 158 -52 349zM66 885q0 -16 4 -33q34 -45 163 -45q47 16 95 35q44 25 44 67 q0 7 -1 13q0 108 -123 108h-2q-16 0 -37 -4q-143 -41 -143 -141z" />
<glyph unicode="j" horiz-adv-x="626" d="M-258 -233q-1 -6 -1 -12q0 -21 17 -35q21 -17 43 -33q188 -94 398 -95q188 0 223 103q20 57 29 262q8 258 20 358q27 201 96 287q-29 74 -98 74q-31 0 -80 -19t-72 -82q-14 -57 -27 -111q-9 -36 -9 -136q0 -52 2 -121q4 -98 4 -171q0 -91 -6 -142q-14 -154 -76 -166 q-18 -4 -41 -4q-53 0 -164 33.5t-162 33.5q-53 0 -96 -24zM311 881q14 -57 174 -58q137 12 138 127q-14 100 -123 101q-24 -1 -49 -9q-59 -10 -101 -51q-40 -40 -40 -92q0 -9 1 -18z" />
<glyph unicode="k" horiz-adv-x="833" d="M23 1262q68 61 133 61q74 0 120 -77q41 -69 41 -166v-21q-2 -72 -26 -279q-23 -190 -23 -278q80 10 215 141q129 125 185 125q37 0 67 -33q1 -8 1 -16q0 -63 -44 -121q-29 -37 -110.5 -107.5t-112.5 -113.5q109 -98 217 -195q132 -108 246 -108h2q68 0 137 35l12 -11 q-37 -68 -127 -88q-82 -8 -163 -16q-98 12 -265 133q-149 111 -195 111h-3q-66 -14 -105 -95v-71q0 -41 -35 -56q-27 -8 -51 -8q-59 0 -89 45q-23 35 -23 84q0 15 2 31q49 451 49 731q0 316 -55 363z" />
<glyph unicode="l" horiz-adv-x="475" d="M-23 375q0 61 23 278q8 78 63 293q51 195 52 277q0 88 -43 127q58 67 150 67h3q136 0 150 -139q-63 -225 -127 -451q-72 -256 -72 -452q0 -92 14 -185q4 -28 51 -28h3q41 0 168 30.5t172 30.5q47 0 55 -26q1 -5 1 -10q0 -71 -241 -160q-55 -16 -108 -17q-139 0 -234 96 q-80 96 -80 269z" />
<glyph unicode="m" horiz-adv-x="1308" d="M20 141q0 86 23 246t23 225q0 92 -29 156q43 45 104 45q49 0 86 -29.5t39 -78.5q0 -55 10 -125q76 100 183 100q47 0 102 -21q27 -8 47 -49q16 -33 33 -65q29 20 96 123q57 86 121 106q25 4 49 4q80 0 158 -39t113 -102q16 -49 16 -109q0 -49 -16.5 -140t-16.5 -136 q0 -51 17 -94q6 -14 22 -15q18 0 93 45t108 45q39 0 51 -53q1 -5 1 -9q1 -50 -101 -94q-110 -48 -224 -48q-53 0 -88 14q-116 51 -116 188q0 41 12 124t12 122q0 61 -20 103q-102 -57 -158 -205l-82 -262q-20 -55 -76 -56q-25 0 -51 11q-102 39 -102 180q0 25 3 75t3 74 q0 63 -16 103q-90 -76 -164 -232q-61 -129 -123 -258l-135 33q-6 47 -7 98z" />
<glyph unicode="n" horiz-adv-x="950" d="M0 8q2 25 35 240q22 150 22 234v7q0 133 -51 173q29 59 98 59q80 0 117 -41q20 -35 27 -105q4 -61 8 -120q39 102 74 142q33 38 83 38h5q168 -12 227 -31q121 -37 166 -143q4 -25 4 -55q0 -35 -7 -105t-7 -98q0 -90 51 -107q4 -1 9 -1q31 1 95 23q74 26 97 25 q37 0 37 -35q0 -47 -109 -73q-45 -10 -193 -27q-74 0 -131 31q-70 37 -77 108q0 29 10 107t10 117q0 117 -80 129q-6 1 -12 1q-85 0 -174 -188l-148 -352q-18 -2 -36 -2q-84 0 -150 49z" />
<glyph unicode="o" horiz-adv-x="948" d="M16 344q0 -184 115 -270q156 -70 295 -70q59 0 116.5 10.5t108.5 56.5t72 105q27 78 143 133q96 37 192 76q87 35 88 79q0 5 -1 9q-10 57 -43 57q-23 0 -101.5 -54t-128.5 -54q-37 0 -69 29q-37 137 -168 223q-123 84 -268 84q-139 0 -226 -62q-98 -68 -112 -200 q-12 -98 -13 -152zM227 311q0 72 74 244q37 84 119 84q72 0 127 -90q51 -80 51 -156q0 -53 -23 -100q-35 -53 -69 -105q-43 -53 -103 -67q-55 0 -100 26q-51 29 -59 76q-16 41 -17 88z" />
<glyph unicode="p" horiz-adv-x="1046" d="M6 -567l35 -33q41 -10 80 -10q70 0 102 32l68 662q190 -94 284 -94q47 0 93 14q66 14 106 74q33 57 66 117q104 16 243 94q147 84 148 143q0 9 -4 17q-12 18 -33 18q-23 0 -122 -65q-86 -57 -147 -57q-9 0 -18 1q-51 18 -61 88q-12 86 -29 107q-147 172 -328 172 q-49 0 -137 -14.5t-127 -14.5q-53 0 -94 18q8 -23 8 -86q0 -256 -133 -1183zM338 354q-2 14 -2 27q0 128 139 201q23 12 41 12q37 0 57 -96q20 -109 60 -133q8 -43 8 -78q0 -107 -76 -162q-14 -4 -28 -4q-63 0 -125 80q-57 74 -74 153z" />
<glyph unicode="q" horiz-adv-x="899" d="M16 297q0 -123 78 -207q111 -84 266 -84q31 0 64 4q51 18 149 58q-36 -154 -36 -300v-8q0 -170 47 -299q31 -82 198 -82q63 0 121 15q51 20 103 41q65 33 65 72q0 17 -9.5 33t-27.5 16q-20 0 -90 -30t-110 -30q-39 0 -68 23q-18 25 -18 106q0 72 29.5 342.5t29.5 419.5 q0 125 -19 215q-20 -2 -40 -2q-76 0 -210 56q-122 50 -200 50q-8 0 -16 -1q-12 1 -24 1q-62 0 -118 -35q-65 -42 -98 -114q-66 -150 -66 -260zM244 293q0 147 78 258q43 27 98 27q115 0 164 -97q-41 -236 -217 -342q-10 -10 -29 -12q-7 -1 -15.5 -1t-19.5 1q-27 2 -29 2 q-30 74 -30 159v5z" />
<glyph unicode="r" horiz-adv-x="671" d="M27 299q0 31 2 91.5t4 88.5q0 92 26 164q35 100 103 100q31 0 67 -20q2 -8 2 -21q0 -10 -4 -41.5t-4 -48.5q0 -33 15 -43q51 63 102 125q66 74 137 82q23 2 43 2q139 0 139 -94q6 -12 7 -25q0 -29 -52 -55q-7 -1 -14 -1q-26 1 -58 11q-42 14 -57 13q-25 0 -43 -23 q-76 -92 -127 -209q-55 -125 -55 -227q0 -68 25 -117q-45 -33 -123 -33q-72 0 -96 39q-39 102 -39 242z" />
<glyph unicode="s" horiz-adv-x="833" d="M29 133q0 18 18 35q18 6 41 6q49 0 153.5 -29.5t145.5 -29.5q70 0 94 53q1 3 1 7q0 28 -76 58q-158 61 -175 72q-100 53 -114 125q-1 10 -1 20q0 174 228 312q20 8 57 8q117 0 256 -59q144 -62 144 -126v-5q-8 -72 -49 -72q-27 0 -104 50t-109 56q-8 1 -16 1 q-49 -1 -89 -33q-48 -38 -55 -82q-2 -9 -2 -17q0 -62 90 -110q98 -45 197 -88q108 -54 108 -118q0 -62 -86 -147q-48 -36 -185 -36h-7q-131 0 -269.5 28.5t-177.5 65.5q-18 53 -18 55z" />
<glyph unicode="t" d="M-10 674q27 61 145 61q45 0 98 -10q4 33 5 61q0 135 -74 172q31 76 141 76q66 0 119 -31.5t57 -82.5q0 -23 -4 -191q66 14 117 14q111 0 125 -57q-4 -27 -31 -47q-63 -49 -225 -61l4 -390q0 -49 55 -49q31 0 107 19.5t106 19.5q55 0 56 -49q0 -10 -5 -25 q-12 -43 -124.5 -88t-217.5 -45q-106 0 -143 56q-77 161 -77 472q0 36 1 74q-236 11 -236 90q0 5 1 11z" />
<glyph unicode="u" horiz-adv-x="948" d="M-2 340q0 182 86 375l160 -10q-59 -209 -60 -398q0 -190 82 -207h7q58 0 124 95q29 43 119 217q76 145 127 200q31 47 86 47q80 0 121 -55q-43 -31 -72.5 -129t-29.5 -199q0 -158 65 -165q6 -1 12 -1q49 0 133 43q94 48 119 48q37 0 37 -41q0 -53 -121 -101 q-113 -45 -219 -45q-76 0 -98 29l-86 133q-33 -88 -133 -137q-88 -43 -193 -43q-92 0 -145 35q-121 104 -121 309z" />
<glyph unicode="v" horiz-adv-x="817" d="M-8 668q45 20 88 43q51 22 87 22h3q43 0 78 -31q110 -350 178 -446q70 57 129 203q66 168 111 221q7 2 15 2q22 0 46 -18q27 -20 53 -41q-35 -240 -278 -615q-88 -20 -123 -20q-117 0 -201 147q-156 274 -186 533z" />
<glyph unicode="w" horiz-adv-x="1247" d="M-29 705q71 81 173 81h3q88 0 119 -53l82 -510q45 41 90 160q53 143 76 180q55 86 141 86q43 0 99 -20q-6 -20 -6 -45q0 -94 145 -361q70 76 135 223q100 225 109 240q8 2 16 2q55 0 76 -59q-92 -291 -135 -393q-98 -229 -189 -234h-6q-64 0 -113 41q-39 39 -75 78 q-23 29 -109 217q-100 -295 -209 -336q-125 0 -162 10q-88 18 -104 94q-20 70 -35 224q-16 162 -33 223q-29 111 -88 152z" />
<glyph unicode="x" horiz-adv-x="911" d="M25 78l254 256q-14 39 -119 141q-92 88 -92 148q0 35 26 69q55 72 139 72q16 0 35 -2q-1 -5 -1 -11q0 -44 69 -108q66 -59 131 -121q37 20 141 146q87 108 143 108h1q45 0 86 -61q2 -8 2 -25q0 -121 -228 -321l283 -256q-57 -72 -186 -95q-72 8 -160 76q-57 49 -115 101 q-20 -10 -131 -113q-82 -74 -149 -74q-29 0 -60 10q-6 6 -43 25q-27 14 -26 35z" />
<glyph unicode="y" horiz-adv-x="817" d="M8 682q39 45 109 45q88 0 125 -61q20 -35 20 -93q0 -51 -21.5 -158.5t-21.5 -146.5q0 -86 70 -90h8q95 0 166 139q47 92 96 281q41 162 53 172q51 -2 101 -2q57 -2 86 -45l-94 -1042q-8 -94 -226 -95q-154 0 -295 35q-176 44 -176 114q0 7 2 15q8 33 47 33q35 0 160 -47 q120 -45 177 -45h5q92 4 119 159q12 76 12 271q-74 -27 -147 -55q-98 -33 -164 -33q-88 0 -141 53t-53 162q0 55 17 163.5t17 151.5q0 90 -51 119z" />
<glyph unicode="z" horiz-adv-x="892" d="M14 573q-1 12 -1 24q0 203 235 204q49 0 150.5 -9.5t146.5 -9.5q39 0 67 4q23 6 43 7q63 0 107 -56q31 -41 37 -90v-117q-6 -37 -174 -151q-201 -135 -254 -195l524 17q6 -10 6 -29q0 -63 -55 -117q-63 -57 -494 -57q-229 0 -250 22q-23 39 -45 76q-26 47 -26 85 q0 34 14 61q57 63 196.5 185t198.5 185q-86 16 -176 17q-166 0 -250 -56z" />
<glyph unicode="&#xad;" horiz-adv-x="870" d="M109 436q0 37 39.5 74t97.5 47q51 8 135 8q139 0 252 -20q129 -25 129 -64q0 -57 -199 -94q-148 -27 -246 -27q-123 0 -184 29q-25 18 -24 47z" />
<glyph unicode="&#x2000;" horiz-adv-x="708" />
<glyph unicode="&#x2001;" horiz-adv-x="1417" />
<glyph unicode="&#x2002;" horiz-adv-x="708" />
<glyph unicode="&#x2003;" horiz-adv-x="1417" />
<glyph unicode="&#x2004;" horiz-adv-x="472" />
<glyph unicode="&#x2005;" horiz-adv-x="354" />
<glyph unicode="&#x2006;" horiz-adv-x="236" />
<glyph unicode="&#x2007;" horiz-adv-x="236" />
<glyph unicode="&#x2008;" horiz-adv-x="177" />
<glyph unicode="&#x2009;" horiz-adv-x="283" />
<glyph unicode="&#x200a;" horiz-adv-x="78" />
<glyph unicode="&#x2010;" horiz-adv-x="870" d="M109 436q0 37 39.5 74t97.5 47q51 8 135 8q139 0 252 -20q129 -25 129 -64q0 -57 -199 -94q-148 -27 -246 -27q-123 0 -184 29q-25 18 -24 47z" />
<glyph unicode="&#x2011;" horiz-adv-x="870" d="M109 436q0 37 39.5 74t97.5 47q51 8 135 8q139 0 252 -20q129 -25 129 -64q0 -57 -199 -94q-148 -27 -246 -27q-123 0 -184 29q-25 18 -24 47z" />
<glyph unicode="&#x2012;" horiz-adv-x="870" d="M109 436q0 37 39.5 74t97.5 47q51 8 135 8q139 0 252 -20q129 -25 129 -64q0 -57 -199 -94q-148 -27 -246 -27q-123 0 -184 29q-25 18 -24 47z" />
<glyph unicode="&#x2013;" horiz-adv-x="1240" d="M108 436q0 37 62 74t153 47q80 8 212 8q218 0 395 -20q202 -25 202 -64q0 -57 -312 -94q-232 -27 -386 -27q-193 0 -288 29q-40 18 -38 47z" />
<glyph unicode="&#x2014;" horiz-adv-x="2264" d="M108 436q0 37 124 74t306 47q160 8 423 8q436 0 790 -20q405 -25 405 -64q0 -57 -624 -94q-464 -27 -772 -27q-385 0 -577 29q-78 18 -75 47z" />
<glyph unicode="&#x202f;" horiz-adv-x="283" />
<glyph unicode="&#x205f;" horiz-adv-x="354" />
<glyph unicode="&#xe000;" horiz-adv-x="778" d="M0 0v778h778v-778h-778z" />
</font>
</defs>
</svg>
